<?xml version="1.0" standalone="no"?>
<!DOCTYPE svg PUBLIC "-//W3C//DTD SVG 20010904//EN"
 "http://www.w3.org/TR/2001/REC-SVG-20010904/DTD/svg10.dtd">
<svg version="1.0" xmlns="http://www.w3.org/2000/svg"
 width="260.000000pt" height="260.000000pt" viewBox="0 0 260.000000 260.000000"
 preserveAspectRatio="xMidYMid meet">
<metadata>
Created by potrace 1.11, written by Peter Selinger 2001-2013
</metadata>
<g transform="translate(0.000000,260.000000) scale(0.100000,-0.100000)"
fill="#000000" stroke="none">
<path d="M790 1916 c0 -12 10 -16 38 -16 52 0 98 -30 106 -70 12 -62 7 -847
-6 -875 -15 -33 -56 -55 -103 -55 -24 0 -35 -4 -35 -15 0 -13 32 -15 225 -15
184 0 225 2 225 14 0 9 -17 15 -51 18 -34 4 -58 12 -72 27 -21 20 -22 32 -25
226 l-3 205 59 0 c57 0 61 -2 81 -32 11 -18 50 -74 88 -125 37 -51 106 -146
153 -212 l85 -120 143 0 c119 -1 142 1 142 14 0 10 -14 17 -40 21 -81 13 -137
59 -242 199 -108 143 -201 276 -196 280 2 1 26 10 55 19 142 47 219 168 191
301 -19 94 -76 157 -175 196 -55 21 -75 23 -350 27 -264 4 -293 2 -293 -12z
m498 -60 c57 -20 96 -51 121 -96 61 -109 23 -244 -85 -302 -51 -28 -191 -55
-220 -44 -11 4 -14 46 -14 225 l0 220 38 4 c81 8 121 6 160 -7z"/>
<path d="M2157 944 c-4 -4 -7 -27 -7 -50 0 -24 -5 -46 -10 -49 -6 -3 -9 -25
-9 -48 1 -23 -2 -58 -6 -78 -5 -27 -3 -39 10 -52 15 -16 15 -17 -9 -17 -14 0
-26 4 -26 8 0 4 -19 9 -42 11 -35 2 -39 0 -30 -12 10 -11 9 -17 -2 -26 -11 -9
-15 -9 -19 1 -4 8 -6 7 -6 -4 -1 -10 4 -18 11 -18 16 0 1 -13 -20 -16 -9 -2
-20 2 -23 8 -9 14 -35 -10 -42 -38 -4 -16 -5 -16 -6 -1 -1 10 -9 17 -21 17
-17 0 -19 -6 -17 -51 2 -42 -1 -52 -15 -54 -18 -3 -19 1 -23 103 0 23 3 31 12
28 16 -6 17 10 3 19 -6 4 -18 1 -27 -7 -9 -7 -18 -11 -20 -10 -3 2 -7 1 -10
-2 -4 -3 -1 -6 5 -6 7 0 12 -9 12 -20 0 -23 -10 -26 -28 -8 -10 10 -19 8 -43
-6 -27 -16 -32 -16 -53 -3 -22 15 -23 14 -18 -9 3 -19 9 -23 27 -18 13 3 36
-1 52 -10 l28 -15 -32 3 c-18 2 -34 -2 -37 -8 -3 -7 -5 -7 -5 2 -1 6 -10 12
-20 12 -11 0 -23 5 -26 10 -5 8 -11 8 -20 0 -8 -6 -29 -8 -54 -4 -36 6 -41 4
-35 -10 5 -12 0 -16 -16 -16 -16 0 -20 -4 -16 -15 4 -10 -1 -15 -15 -15 -20 0
-20 5 -18 103 1 59 7 105 13 109 6 4 -3 8 -21 8 -17 0 -33 5 -35 11 -2 7 -13
9 -26 5 -12 -4 -20 -11 -17 -16 3 -5 -8 -8 -25 -7 -16 1 -30 5 -30 9 0 3 -13
1 -30 -5 -30 -11 -30 -12 -31 -92 -2 -144 2 -131 -40 -127 -27 3 -39 10 -44
25 -8 22 -8 22 -12 1 -6 -32 -57 -29 -71 5 l-10 26 -7 -22 c-6 -18 -15 -23
-41 -23 -21 0 -37 -6 -43 -17 -9 -16 -12 -16 -21 -3 -8 12 -11 13 -19 1 -6 -9
-16 -11 -32 -5 -13 4 -27 7 -31 6 -5 -1 -8 25 -8 58 0 48 -4 61 -19 69 -29 16
-43 -10 -42 -73 0 -58 -4 -65 -44 -72 -25 -4 -25 -4 -27 78 l-2 83 -5 -81 -6
-81 -28 1 c-16 1 -31 -2 -33 -6 -9 -14 -44 -8 -44 7 0 19 -49 20 -56 1 -3 -8
-16 -12 -32 -9 -15 2 -42 4 -59 4 -25 1 -33 5 -33 20 0 10 -5 19 -10 19 -6 0
-10 -8 -8 -17 3 -16 -6 -18 -59 -18 -35 0 -63 4 -63 8 0 5 -8 7 -17 5 -10 -1
-24 2 -32 7 -8 4 -77 10 -153 12 l-138 4 0 -241 0 -240 190 0 c178 0 190 1
190 18 0 29 12 34 24 9 l12 -22 1092 -3 1092 -2 0 280 c0 244 -2 279 -15 274
-11 -5 -15 1 -15 19 0 31 -13 41 -40 32 -15 -5 -20 -15 -20 -43 l-1 -37 -19
25 c-52 68 -56 70 -90 40 -21 -18 -25 -19 -33 -5 -4 8 -12 13 -17 10 -5 -3
-11 8 -15 25 -4 16 -13 30 -21 30 -17 0 -18 -12 -3 -27 7 -7 4 -12 -10 -16
-12 -3 -22 1 -25 9 -3 8 -15 14 -26 14 -20 0 -25 19 -21 77 1 11 -3 24 -8 28
-6 3 -11 41 -12 83 -1 42 -4 88 -8 102 -7 25 -30 37 -44 24z m-77 -293 c0 -6
-5 -13 -11 -17 -6 -3 -9 -15 -6 -25 3 -12 -2 -23 -14 -29 -23 -13 -24 -4 -4
44 14 33 35 49 35 27z m-110 -81 c0 -5 -5 -10 -11 -10 -5 0 -7 5 -4 10 3 6 8
10 11 10 2 0 4 -4 4 -10z m50 -12 c0 -17 -1 -17 -20 -1 -11 10 -20 18 -20 20
0 1 9 1 20 0 12 -1 20 -8 20 -19z m367 -30 c-3 -8 -6 -5 -6 6 -1 11 2 17 5 13
3 -3 4 -12 1 -19z m-394 -5 c3 -10 5 -35 6 -55 1 -32 -2 -38 -19 -38 -15 0
-20 7 -21 28 l-1 27 -8 -25 c-6 -18 -7 -11 -5 25 2 28 4 51 4 53 3 11 41 -2
44 -15z m-1116 -40 c-3 -10 -5 -4 -5 12 0 17 2 24 5 18 2 -7 2 -21 0 -30z
m920 5 c-3 -7 -5 -2 -5 12 0 14 2 19 5 13 2 -7 2 -19 0 -25z m543 12 c0 -5 -4
-10 -10 -10 -5 0 -10 5 -10 10 0 6 5 10 10 10 6 0 10 -4 10 -10z m-513 -52
c-3 -8 -6 -5 -6 6 -1 11 2 17 5 13 3 -3 4 -12 1 -19z m520 16 c-3 -3 -12 -4
-19 -1 -8 3 -5 6 6 6 11 1 17 -2 13 -5z m240 -40 c-3 -3 -12 -4 -19 -1 -8 3
-5 6 6 6 11 1 17 -2 13 -5z m-1777 -174 c-19 -5 -41 -4 -50 0 -10 6 1 9 35 9
48 -1 49 -1 15 -9z m520 -30 c11 -7 7 -10 -18 -10 -20 0 -31 4 -27 10 8 13 26
13 45 0z m940 -54 c-7 -7 -10 4 -9 29 1 40 1 40 10 10 5 -18 5 -33 -1 -39z
m-1813 -18 c-2 -13 -4 -5 -4 17 -1 22 1 32 4 23 2 -10 2 -28 0 -40z m873 -58
c0 -5 -4 -10 -10 -10 -5 0 -10 5 -10 10 0 6 5 10 10 10 6 0 10 -4 10 -10z
m-380 -40 c0 -11 -4 -20 -10 -20 -5 0 -10 9 -10 20 0 11 5 20 10 20 6 0 10 -9
10 -20z m317 -2 c-3 -8 -6 -5 -6 6 -1 11 2 17 5 13 3 -3 4 -12 1 -19z"/>
<path d="M580 820 c0 -6 7 -10 15 -10 8 0 15 2 15 4 0 2 -7 6 -15 10 -8 3 -15
1 -15 -4z"/>
<path d="M715 780 c-3 -6 1 -7 9 -4 11 4 16 0 16 -10 0 -9 5 -16 10 -16 7 0 7
6 0 20 -12 22 -25 26 -35 10z"/>
<path d="M2276 743 c-3 -10 -4 -30 -2 -46 2 -15 -1 -30 -5 -33 -20 -12 -7 -21
16 -11 19 9 25 20 25 44 0 55 -22 85 -34 46z"/>
<path d="M731 724 c0 -11 3 -14 6 -6 3 7 2 16 -1 19 -3 4 -6 -2 -5 -13z"/>
<path d="M1926 728 c4 -6 1 -14 -6 -18 -9 -6 -10 -12 -1 -26 6 -11 11 -14 11
-8 0 7 11 9 25 6 19 -3 25 0 25 14 0 11 -4 24 -8 29 -9 14 -55 17 -46 3z"/>
<path d="M990 707 c0 -13 6 -31 14 -42 12 -17 13 -16 20 11 5 18 3 30 -3 32
-6 2 -9 8 -5 13 3 5 -2 9 -10 9 -10 0 -16 -9 -16 -23z"/>
<path d="M1636 713 c-2 -2 -1 -15 2 -28 3 -20 10 -25 33 -25 33 0 38 14 12 29
-16 9 -15 10 5 11 13 0 21 -4 17 -9 -3 -5 -1 -12 4 -15 14 -9 21 8 11 24 -8
13 -74 23 -84 13z"/>
<path d="M1551 694 c0 -11 3 -14 6 -6 3 7 2 16 -1 19 -3 4 -6 -2 -5 -13z"/>
<path d="M1611 694 c0 -11 3 -14 6 -6 3 7 2 16 -1 19 -3 4 -6 -2 -5 -13z"/>
<path d="M771 654 c0 -11 3 -14 6 -6 3 7 2 16 -1 19 -3 4 -6 -2 -5 -13z"/>
<path d="M1981 632 c1 -28 3 -31 6 -12 3 14 9 28 15 31 5 4 3 9 -6 12 -13 5
-16 -1 -15 -31z"/>
<path d="M1870 646 c0 -9 5 -16 10 -16 6 0 10 4 10 9 0 6 -4 13 -10 16 -5 3
-10 -1 -10 -9z"/>
<path d="M1738 643 c7 -3 16 -2 19 1 4 3 -2 6 -13 5 -11 0 -14 -3 -6 -6z"/>
<path d="M1916 641 c-5 -8 -2 -20 8 -29 17 -17 19 -9 7 22 -6 15 -10 16 -15 7z"/>
<path d="M751 504 c0 -11 3 -14 6 -6 3 7 2 16 -1 19 -3 4 -6 -2 -5 -13z"/>
<path d="M705 480 c4 -6 11 -8 16 -5 14 9 11 15 -7 15 -8 0 -12 -5 -9 -10z"/>
<path d="M436 463 c-6 -14 -5 -15 5 -6 7 7 10 15 7 18 -3 3 -9 -2 -12 -12z"/>
</g>
</svg>
