<?xml version="1.0" standalone="no"?>
<!DOCTYPE svg PUBLIC "-//W3C//DTD SVG 20010904//EN"
 "http://www.w3.org/TR/2001/REC-SVG-20010904/DTD/svg10.dtd">
<svg version="1.0" xmlns="http://www.w3.org/2000/svg"
 width="1143.000000pt" height="1143.000000pt" viewBox="0 0 1143.000000 1143.000000"
 preserveAspectRatio="xMidYMid meet">
<metadata>
Created by potrace 1.11, written by Peter Selinger 2001-2013
</metadata>
<g transform="translate(0.000000,1143.000000) scale(0.100000,-0.100000)"
fill="#000000" stroke="none">
<path d="M40 9138 l0 -104 118 -16 c325 -46 400 -131 442 -503 8 -72 10 -871
8 -2900 -3 -2643 -5 -2806 -22 -2905 -21 -126 -70 -227 -128 -270 -54 -40
-178 -76 -305 -91 l-113 -13 0 -104 0 -105 157 7 c513 23 1893 23 2471 0 l182
-7 0 107 0 106 -37 0 c-74 1 -250 38 -311 65 -74 33 -123 83 -158 163 -52 116
-55 153 -64 922 -5 393 -8 857 -6 1030 2 173 5 463 5 643 l1 329 238 -4 c237
-4 237 -4 287 -32 134 -74 218 -208 305 -487 66 -214 135 -587 180 -989 11
-96 29 -242 40 -325 10 -82 26 -213 35 -290 53 -453 87 -613 171 -793 148
-319 347 -468 739 -554 90 -20 129 -22 385 -23 259 0 294 2 387 23 338 74 566
205 778 447 l57 65 -56 68 -56 69 -52 -48 c-64 -59 -135 -84 -217 -76 -169 15
-244 133 -315 494 -19 98 -37 201 -41 228 -3 28 -19 124 -35 215 -15 91 -45
269 -65 395 -78 492 -120 664 -198 820 -177 354 -480 588 -941 724 -156 47
-396 97 -525 110 -51 6 -95 12 -98 14 -2 2 25 7 59 11 101 11 352 64 488 103
595 171 960 470 1197 982 55 119 111 303 140 461 25 132 27 167 27 385 -1 217
-3 252 -27 370 -36 181 -79 310 -148 445 -73 142 -137 228 -257 346 -303 299
-728 472 -1348 548 -257 32 -576 40 -1122 27 -859 -19 -1805 -13 -2169 15
l-83 6 0 -104z m2879 -141 c96 -35 157 -75 230 -151 86 -88 104 -118 166 -265
78 -186 146 -552 166 -884 12 -209 7 -618 -10 -812 -15 -170 -79 -466 -134
-618 -38 -105 -116 -233 -195 -319 -85 -93 -120 -119 -222 -164 -147 -64 -214
-76 -442 -81 l-208 -5 0 1288 c0 1227 6 1548 31 1703 11 71 59 196 91 236 36
46 112 84 198 99 14 2 77 3 140 2 94 -2 128 -8 189 -29z"/>
<path d="M5910 9138 l0 -105 63 -7 c156 -17 283 -53 349 -101 37 -27 55 -52
87 -117 37 -74 43 -98 58 -223 17 -130 18 -318 18 -2640 0 -2308 -1 -2518 -18
-2730 -20 -258 -27 -309 -61 -422 -57 -190 -140 -297 -292 -375 -49 -25 -115
-54 -146 -64 l-58 -18 0 -104 0 -103 143 8 c183 10 1003 10 1260 0 l197 -8 0
104 0 104 -87 18 c-49 10 -138 35 -200 56 -324 108 -439 271 -499 704 -29 215
-35 595 -32 2222 l3 1621 76 -101 c41 -56 120 -163 175 -237 55 -74 167 -225
249 -335 82 -110 232 -312 334 -450 261 -354 430 -582 725 -980 173 -233 272
-366 304 -410 16 -22 115 -155 219 -295 104 -140 229 -309 278 -375 49 -66
132 -178 185 -250 129 -173 305 -412 418 -565 51 -69 106 -143 123 -165 17
-22 47 -63 67 -90 20 -28 124 -168 231 -312 l194 -261 288 1 289 1 3 140 c1
78 2 1376 2 2886 0 2554 1 2760 18 2960 23 273 40 383 79 495 65 191 183 306
396 386 l82 32 0 104 0 105 -37 -5 c-21 -4 -173 -12 -338 -18 -238 -10 -384
-10 -715 0 -228 7 -436 15 -462 18 l-48 5 0 -103 0 -104 133 -34 c487 -125
606 -279 667 -866 24 -234 31 -717 28 -1944 l-3 -1274 -56 74 c-31 41 -95 124
-141 184 -47 61 -104 135 -127 165 -23 30 -76 100 -118 155 -70 92 -168 220
-272 355 -67 87 -250 325 -325 424 -38 50 -113 147 -166 216 -53 69 -164 213
-245 320 -162 211 -322 421 -455 595 -46 61 -87 112 -90 115 -3 3 -52 66 -108
140 -56 74 -154 203 -217 285 -63 83 -146 191 -184 240 -38 50 -100 131 -138
180 -38 50 -111 146 -163 214 -52 68 -113 147 -134 175 -111 145 -169 219
-246 321 -47 61 -95 123 -107 139 l-22 27 -118 -11 c-290 -26 -1076 -22 -1270
6 l-43 7 0 -105z"/>
</g>
</svg>
