<?xml version="1.0" standalone="no"?>
<!DOCTYPE svg PUBLIC "-//W3C//DTD SVG 20010904//EN"
 "http://www.w3.org/TR/2001/REC-SVG-20010904/DTD/svg10.dtd">
<svg version="1.0" xmlns="http://www.w3.org/2000/svg"
 width="260.000000pt" height="260.000000pt" viewBox="0 0 260.000000 260.000000"
 preserveAspectRatio="xMidYMid meet">
<metadata>
Created by potrace 1.11, written by Peter Selinger 2001-2013
</metadata>
<g transform="translate(0.000000,260.000000) scale(0.100000,-0.100000)"
fill="#000000" stroke="none">
<path d="M418 2032 l-238 -2 0 -33 c0 -17 10 -48 23 -67 l22 -35 3 -588 c3
-588 -1 -686 -32 -711 -20 -16 -26 -42 -13 -55 7 -7 76 -11 209 -11 198 0 298
11 298 34 0 6 -19 18 -42 26 -26 9 -47 25 -55 40 -9 18 -13 98 -13 297 l0 272
25 26 c14 14 30 25 35 25 22 0 88 -73 103 -112 19 -51 44 -193 58 -332 23
-229 92 -309 269 -310 110 -1 165 19 220 81 22 25 40 49 40 54 0 15 -21 21
-35 9 -21 -17 -56 -8 -77 20 -11 15 -25 63 -33 110 -47 282 -59 321 -120 381
-19 20 -60 48 -90 63 -30 15 -55 31 -55 36 0 6 24 23 53 40 90 50 133 95 174
178 38 75 38 77 38 196 0 112 -2 125 -27 172 -66 125 -198 188 -408 196 -52 1
-202 2 -332 0z m319 -69 c48 -58 65 -95 78 -171 19 -103 18 -213 -1 -308 -27
-135 -75 -184 -177 -184 l-56 0 -7 46 c-3 25 -5 159 -2 298 4 240 5 255 27
297 13 24 28 48 35 52 22 15 79 -2 103 -30z"/>
<path d="M1344 2031 c-13 -13 0 -30 26 -36 21 -5 40 -20 58 -48 l27 -41 0
-600 c0 -571 -1 -603 -19 -639 -11 -22 -36 -50 -58 -64 -55 -37 -51 -59 15
-67 64 -7 165 -6 232 2 40 6 50 11 50 26 0 13 -15 24 -52 38 -106 39 -117 85
-117 530 -1 343 1 356 48 325 25 -17 69 -73 224 -282 409 -555 462 -624 482
-635 24 -13 71 -13 104 0 l25 9 3 658 c3 739 -1 693 79 768 22 20 38 42 36 48
-2 8 -55 13 -170 15 -163 2 -167 2 -167 -18 0 -11 8 -24 18 -27 44 -16 95 -60
120 -102 l27 -46 4 -323 c1 -177 0 -330 -3 -339 -6 -15 -12 -12 -39 17 -18 19
-61 73 -97 120 -36 47 -101 133 -145 189 -189 244 -294 381 -348 453 l-57 76
-151 -1 c-83 -1 -153 -4 -155 -6z"/>
</g>
</svg>
